<?xml version="1.0" standalone="no"?>
<!DOCTYPE svg PUBLIC "-//W3C//DTD SVG 20010904//EN"
 "http://www.w3.org/TR/2001/REC-SVG-20010904/DTD/svg10.dtd">
<svg version="1.0" xmlns="http://www.w3.org/2000/svg"
 width="578.000000pt" height="578.000000pt" viewBox="0 0 578.000000 578.000000"
 preserveAspectRatio="xMidYMid meet">
<metadata>
Created by potrace 1.11, written by Peter Selinger 2001-2013
</metadata>
<g transform="translate(0.000000,578.000000) scale(0.100000,-0.100000)"
fill="#000000" stroke="none">
<path d="M2773 5765 c-63 -17 -94 -33 -244 -121 -63 -36 -139 -80 -169 -97
-30 -16 -66 -38 -80 -47 -14 -9 -59 -36 -100 -59 -41 -23 -82 -46 -90 -51 -30
-19 -483 -280 -549 -316 -19 -11 -40 -23 -45 -27 -10 -7 -274 -161 -381 -222
-117 -66 -361 -208 -370 -215 -5 -4 -41 -24 -80 -45 -38 -20 -77 -44 -86 -51
-8 -8 -20 -14 -25 -14 -5 0 -22 -12 -39 -26 -70 -59 -95 -83 -95 -88 0 -4 -11
-23 -24 -44 -14 -20 -34 -65 -45 -99 -21 -61 -21 -75 -20 -1350 0 -1396 -2
-1336 55 -1438 35 -61 116 -145 169 -174 22 -12 47 -26 55 -31 30 -20 171
-100 175 -100 3 0 26 -13 52 -29 237 -144 418 -231 555 -268 66 -17 280 -23
348 -9 61 12 114 28 135 39 11 6 26 12 34 13 8 2 18 9 22 16 5 7 9 9 9 5 0
-13 72 44 122 98 42 44 115 168 122 206 1 8 5 23 9 34 8 27 16 68 23 135 5 41
9 2419 5 2523 -1 9 -10 26 -21 37 -18 18 -33 20 -168 20 -168 0 -188 -4 -199
-34 -4 -11 -7 -574 -8 -1251 -1 -1381 4 -1292 -75 -1372 -74 -76 -159 -100
-285 -80 -60 9 -154 47 -187 75 -10 8 -18 11 -18 7 0 -4 -8 -1 -17 7 -16 13
-34 24 -143 86 -183 103 -359 208 -374 223 -19 18 -20 44 -21 1241 0 673 3
1238 6 1256 8 37 18 46 87 82 26 14 49 27 52 30 4 5 95 57 220 127 25 14 70
41 101 59 31 19 61 34 67 34 6 0 12 4 14 8 3 7 628 370 733 426 22 11 42 24
45 27 3 3 30 19 60 36 30 16 153 87 273 156 120 70 222 127 228 127 5 0 9 5 9
10 0 6 4 10 10 10 5 0 62 31 128 69 65 38 127 71 138 72 19 4 105 -36 156 -72
14 -11 28 -19 31 -19 3 0 51 -27 107 -60 56 -33 106 -60 111 -60 5 0 9 -4 9
-10 0 -5 4 -10 8 -10 8 0 94 -46 132 -70 30 -19 222 -130 225 -130 2 0 32 -17
66 -38 35 -21 89 -52 119 -69 30 -17 123 -70 205 -118 83 -48 170 -99 195
-113 25 -14 69 -39 99 -56 29 -17 74 -43 100 -59 25 -15 58 -32 74 -38 15 -6
27 -15 27 -20 0 -5 4 -9 9 -9 5 0 85 -44 178 -99 94 -54 174 -100 179 -102 57
-24 145 -87 152 -108 4 -15 7 -580 7 -1258 -1 -990 -3 -1234 -14 -1247 -7 -8
-133 -85 -279 -169 -147 -85 -283 -164 -302 -175 -19 -12 -46 -27 -60 -35 -92
-51 -447 -258 -457 -267 -7 -5 -15 -10 -18 -10 -5 0 -61 -31 -163 -93 -26 -15
-54 -30 -62 -34 -8 -3 -22 -11 -30 -18 -8 -7 -42 -27 -75 -45 -33 -17 -64 -35
-70 -40 -5 -4 -30 -19 -55 -33 -137 -76 -216 -122 -220 -127 -3 -3 -20 -12
-37 -19 -18 -8 -33 -17 -33 -22 0 -5 -5 -9 -10 -9 -6 0 -71 -36 -145 -79 -118
-69 -140 -78 -165 -71 -28 8 -120 58 -130 71 -3 3 -10 8 -15 10 -6 2 -70 40
-143 84 -73 44 -141 85 -150 90 -9 6 -47 27 -84 48 l-66 38 -104 -54 c-57 -29
-141 -66 -186 -82 -44 -15 -84 -35 -87 -44 -9 -22 10 -35 260 -183 223 -132
325 -193 360 -215 57 -36 193 -109 215 -116 55 -17 68 -19 140 -22 125 -4 190
18 400 140 221 128 262 152 354 204 73 41 81 46 94 59 7 6 20 12 28 12 8 0 14
5 14 10 0 6 5 10 10 10 9 0 82 40 130 71 36 22 243 139 248 139 3 0 13 6 21
14 9 7 36 25 61 38 25 14 84 48 131 75 48 27 93 53 100 57 8 3 28 15 44 26 17
11 36 23 44 26 7 4 91 52 185 107 94 55 185 107 201 117 43 24 210 121 275
159 113 67 170 142 218 286 9 26 9 2623 0 2655 -3 14 -7 26 -9 28 -1 1 -2 5
-3 10 -1 4 -15 33 -31 66 -50 97 -112 144 -451 340 -170 98 -320 186 -334 195
-14 8 -27 16 -30 16 -5 1 -194 111 -303 176 -26 16 -51 29 -55 29 -4 0 -17 7
-27 15 -16 13 -211 126 -530 309 -22 13 -80 47 -130 76 -49 29 -110 64 -135
78 -25 14 -62 36 -82 49 -21 12 -39 23 -41 23 -2 0 -42 23 -88 50 -46 28 -108
59 -138 70 -72 28 -209 35 -278 15z"/>
<path d="M3367 4043 c-1 -1 -31 -4 -67 -7 -101 -9 -131 -14 -185 -26 -27 -6
-57 -13 -65 -15 -137 -31 -280 -108 -367 -194 -72 -73 -76 -78 -111 -143 -52
-96 -73 -184 -73 -298 1 -206 70 -348 219 -452 41 -28 158 -87 184 -92 7 -2
20 -6 28 -9 42 -16 197 -52 269 -63 58 -8 162 -22 229 -29 23 -3 63 -8 90 -11
26 -3 58 -7 72 -9 45 -5 124 -15 150 -20 14 -3 41 -7 60 -10 19 -3 53 -11 75
-17 22 -5 50 -12 63 -14 47 -9 131 -46 172 -75 48 -35 70 -80 71 -147 3 -112
-37 -193 -123 -248 -36 -23 -143 -64 -183 -70 -11 -1 -36 -5 -55 -8 -98 -15
-147 -17 -275 -17 -77 1 -160 3 -185 5 -66 5 -153 16 -172 22 -9 3 -26 7 -39
9 -27 5 -112 37 -119 44 -3 4 -21 14 -40 24 -74 39 -135 144 -164 284 -8 35
-17 67 -21 71 -4 4 -81 8 -172 9 -161 2 -165 2 -188 -21 -21 -21 -23 -30 -19
-97 5 -76 36 -216 57 -253 6 -12 11 -24 12 -28 1 -17 87 -137 127 -176 106
-104 276 -188 463 -227 150 -32 233 -39 465 -38 214 0 235 2 390 34 315 64
523 214 613 439 26 67 48 168 46 210 -1 14 0 30 2 35 6 18 -11 159 -25 206
-52 172 -166 274 -401 358 -39 14 -169 47 -220 56 -22 4 -50 9 -62 11 -13 2
-35 6 -50 9 -28 5 -63 11 -128 20 -19 3 -51 7 -70 10 -59 8 -98 14 -150 20
-57 7 -89 12 -125 20 -14 3 -41 7 -60 9 -55 7 -180 35 -228 51 -104 36 -165
89 -159 138 2 15 1 27 -3 27 -9 0 5 98 19 133 13 34 69 90 108 111 38 19 121
47 158 52 17 3 41 7 55 10 36 7 353 13 364 6 4 -2 27 -6 50 -7 145 -9 270 -61
344 -143 42 -46 63 -88 92 -177 33 -103 31 -103 214 -101 211 1 211 1 171 211
-9 51 -48 159 -64 178 -8 9 -11 17 -7 17 14 0 -58 96 -114 153 -63 63 -177
133 -273 166 -110 39 -122 42 -142 45 -97 15 -123 19 -140 22 -51 10 -381 25
-388 17z"/>
</g>
</svg>
